<mxfile host="Electron" agent="Mozilla/5.0 (Macintosh; Intel Mac OS X 10_15_7) AppleWebKit/537.36 (KHTML, like Gecko) draw.io/26.2.2 Chrome/134.0.6998.178 Electron/35.1.2 Safari/537.36" version="26.2.2">
  <diagram id="C5RBs43oDa-KdzZeNtuy" name="Page-1">
    <mxGraphModel dx="827" dy="1699" grid="1" gridSize="10" guides="1" tooltips="1" connect="1" arrows="1" fold="1" page="1" pageScale="1" pageWidth="827" pageHeight="1169" math="0" shadow="0">
      <root>
        <mxCell id="WIyWlLk6GJQsqaUBKTNV-0" />
        <mxCell id="WIyWlLk6GJQsqaUBKTNV-1" parent="WIyWlLk6GJQsqaUBKTNV-0" />
        <mxCell id="wFXzx2R2zVo7K_9oRjjB-2" style="edgeStyle=orthogonalEdgeStyle;rounded=0;orthogonalLoop=1;jettySize=auto;html=1;" edge="1" parent="WIyWlLk6GJQsqaUBKTNV-1" source="wFXzx2R2zVo7K_9oRjjB-0" target="wFXzx2R2zVo7K_9oRjjB-1">
          <mxGeometry relative="1" as="geometry" />
        </mxCell>
        <mxCell id="wFXzx2R2zVo7K_9oRjjB-0" value="Input to Step Function:&lt;div&gt;[2010-01-01, 2019-12-31]&lt;/div&gt;" style="rounded=1;whiteSpace=wrap;html=1;fontSize=12;glass=0;strokeWidth=1;shadow=0;" vertex="1" parent="WIyWlLk6GJQsqaUBKTNV-1">
          <mxGeometry x="210" y="540" width="250" height="130" as="geometry" />
        </mxCell>
        <mxCell id="wFXzx2R2zVo7K_9oRjjB-6" style="edgeStyle=orthogonalEdgeStyle;rounded=0;orthogonalLoop=1;jettySize=auto;html=1;entryX=0.5;entryY=0;entryDx=0;entryDy=0;" edge="1" parent="WIyWlLk6GJQsqaUBKTNV-1" source="wFXzx2R2zVo7K_9oRjjB-1" target="wFXzx2R2zVo7K_9oRjjB-4">
          <mxGeometry relative="1" as="geometry" />
        </mxCell>
        <mxCell id="wFXzx2R2zVo7K_9oRjjB-7" style="edgeStyle=orthogonalEdgeStyle;rounded=0;orthogonalLoop=1;jettySize=auto;html=1;" edge="1" parent="WIyWlLk6GJQsqaUBKTNV-1" source="wFXzx2R2zVo7K_9oRjjB-1" target="wFXzx2R2zVo7K_9oRjjB-5">
          <mxGeometry relative="1" as="geometry" />
        </mxCell>
        <mxCell id="wFXzx2R2zVo7K_9oRjjB-8" style="edgeStyle=orthogonalEdgeStyle;rounded=0;orthogonalLoop=1;jettySize=auto;html=1;" edge="1" parent="WIyWlLk6GJQsqaUBKTNV-1" source="wFXzx2R2zVo7K_9oRjjB-1" target="wFXzx2R2zVo7K_9oRjjB-3">
          <mxGeometry relative="1" as="geometry" />
        </mxCell>
        <mxCell id="wFXzx2R2zVo7K_9oRjjB-10" style="edgeStyle=orthogonalEdgeStyle;rounded=0;orthogonalLoop=1;jettySize=auto;html=1;" edge="1" parent="WIyWlLk6GJQsqaUBKTNV-1" source="wFXzx2R2zVo7K_9oRjjB-1" target="wFXzx2R2zVo7K_9oRjjB-9">
          <mxGeometry relative="1" as="geometry" />
        </mxCell>
        <mxCell id="wFXzx2R2zVo7K_9oRjjB-14" style="edgeStyle=orthogonalEdgeStyle;rounded=0;orthogonalLoop=1;jettySize=auto;html=1;entryX=0.5;entryY=0;entryDx=0;entryDy=0;" edge="1" parent="WIyWlLk6GJQsqaUBKTNV-1" source="wFXzx2R2zVo7K_9oRjjB-1" target="wFXzx2R2zVo7K_9oRjjB-11">
          <mxGeometry relative="1" as="geometry" />
        </mxCell>
        <mxCell id="wFXzx2R2zVo7K_9oRjjB-15" style="edgeStyle=orthogonalEdgeStyle;rounded=0;orthogonalLoop=1;jettySize=auto;html=1;" edge="1" parent="WIyWlLk6GJQsqaUBKTNV-1" source="wFXzx2R2zVo7K_9oRjjB-1" target="wFXzx2R2zVo7K_9oRjjB-12">
          <mxGeometry relative="1" as="geometry" />
        </mxCell>
        <mxCell id="wFXzx2R2zVo7K_9oRjjB-1" value="Lambda&lt;div&gt;DateSegmenter&lt;/div&gt;" style="ellipse;whiteSpace=wrap;html=1;" vertex="1" parent="WIyWlLk6GJQsqaUBKTNV-1">
          <mxGeometry x="275" y="730" width="120" height="80" as="geometry" />
        </mxCell>
        <mxCell id="wFXzx2R2zVo7K_9oRjjB-20" style="edgeStyle=orthogonalEdgeStyle;rounded=0;orthogonalLoop=1;jettySize=auto;html=1;" edge="1" parent="WIyWlLk6GJQsqaUBKTNV-1" source="wFXzx2R2zVo7K_9oRjjB-3" target="wFXzx2R2zVo7K_9oRjjB-17">
          <mxGeometry relative="1" as="geometry" />
        </mxCell>
        <mxCell id="wFXzx2R2zVo7K_9oRjjB-3" value="Parallel Process&lt;div&gt;2012&lt;/div&gt;" style="shape=process;whiteSpace=wrap;html=1;backgroundOutline=1;" vertex="1" parent="WIyWlLk6GJQsqaUBKTNV-1">
          <mxGeometry x="320" y="880" width="120" height="60" as="geometry" />
        </mxCell>
        <mxCell id="wFXzx2R2zVo7K_9oRjjB-18" style="edgeStyle=orthogonalEdgeStyle;rounded=0;orthogonalLoop=1;jettySize=auto;html=1;entryX=0.5;entryY=0;entryDx=0;entryDy=0;" edge="1" parent="WIyWlLk6GJQsqaUBKTNV-1" source="wFXzx2R2zVo7K_9oRjjB-4" target="wFXzx2R2zVo7K_9oRjjB-17">
          <mxGeometry relative="1" as="geometry">
            <Array as="points">
              <mxPoint x="130" y="1010" />
              <mxPoint x="335" y="1010" />
            </Array>
          </mxGeometry>
        </mxCell>
        <mxCell id="wFXzx2R2zVo7K_9oRjjB-4" value="Parallel Process&lt;div&gt;2010&lt;/div&gt;" style="shape=process;whiteSpace=wrap;html=1;backgroundOutline=1;" vertex="1" parent="WIyWlLk6GJQsqaUBKTNV-1">
          <mxGeometry x="70" y="880" width="120" height="60" as="geometry" />
        </mxCell>
        <mxCell id="wFXzx2R2zVo7K_9oRjjB-19" style="edgeStyle=orthogonalEdgeStyle;rounded=0;orthogonalLoop=1;jettySize=auto;html=1;" edge="1" parent="WIyWlLk6GJQsqaUBKTNV-1" source="wFXzx2R2zVo7K_9oRjjB-5" target="wFXzx2R2zVo7K_9oRjjB-17">
          <mxGeometry relative="1" as="geometry" />
        </mxCell>
        <mxCell id="wFXzx2R2zVo7K_9oRjjB-5" value="Parallel Process&lt;div&gt;2011&lt;/div&gt;" style="shape=process;whiteSpace=wrap;html=1;backgroundOutline=1;" vertex="1" parent="WIyWlLk6GJQsqaUBKTNV-1">
          <mxGeometry x="190" y="880" width="120" height="60" as="geometry" />
        </mxCell>
        <mxCell id="wFXzx2R2zVo7K_9oRjjB-21" style="edgeStyle=orthogonalEdgeStyle;rounded=0;orthogonalLoop=1;jettySize=auto;html=1;entryX=0.5;entryY=0;entryDx=0;entryDy=0;" edge="1" parent="WIyWlLk6GJQsqaUBKTNV-1" source="wFXzx2R2zVo7K_9oRjjB-9" target="wFXzx2R2zVo7K_9oRjjB-17">
          <mxGeometry relative="1" as="geometry">
            <Array as="points">
              <mxPoint x="510" y="1010" />
              <mxPoint x="335" y="1010" />
            </Array>
          </mxGeometry>
        </mxCell>
        <mxCell id="wFXzx2R2zVo7K_9oRjjB-9" value="Parallel Process&lt;div&gt;2013&lt;/div&gt;" style="shape=process;whiteSpace=wrap;html=1;backgroundOutline=1;" vertex="1" parent="WIyWlLk6GJQsqaUBKTNV-1">
          <mxGeometry x="450" y="880" width="120" height="60" as="geometry" />
        </mxCell>
        <mxCell id="wFXzx2R2zVo7K_9oRjjB-22" style="edgeStyle=orthogonalEdgeStyle;rounded=0;orthogonalLoop=1;jettySize=auto;html=1;" edge="1" parent="WIyWlLk6GJQsqaUBKTNV-1" source="wFXzx2R2zVo7K_9oRjjB-11" target="wFXzx2R2zVo7K_9oRjjB-17">
          <mxGeometry relative="1" as="geometry">
            <Array as="points">
              <mxPoint x="640" y="1010" />
              <mxPoint x="335" y="1010" />
            </Array>
          </mxGeometry>
        </mxCell>
        <mxCell id="wFXzx2R2zVo7K_9oRjjB-11" value="Parallel Process&lt;div&gt;2015&lt;/div&gt;" style="shape=process;whiteSpace=wrap;html=1;backgroundOutline=1;" vertex="1" parent="WIyWlLk6GJQsqaUBKTNV-1">
          <mxGeometry x="580" y="880" width="120" height="60" as="geometry" />
        </mxCell>
        <mxCell id="wFXzx2R2zVo7K_9oRjjB-23" style="edgeStyle=orthogonalEdgeStyle;rounded=0;orthogonalLoop=1;jettySize=auto;html=1;entryX=0.5;entryY=0;entryDx=0;entryDy=0;" edge="1" parent="WIyWlLk6GJQsqaUBKTNV-1" source="wFXzx2R2zVo7K_9oRjjB-12" target="wFXzx2R2zVo7K_9oRjjB-17">
          <mxGeometry relative="1" as="geometry">
            <Array as="points">
              <mxPoint x="800" y="1010" />
              <mxPoint x="335" y="1010" />
            </Array>
          </mxGeometry>
        </mxCell>
        <mxCell id="wFXzx2R2zVo7K_9oRjjB-12" value="Parallel Process&lt;div&gt;2019&lt;/div&gt;" style="shape=process;whiteSpace=wrap;html=1;backgroundOutline=1;" vertex="1" parent="WIyWlLk6GJQsqaUBKTNV-1">
          <mxGeometry x="740" y="880" width="120" height="60" as="geometry" />
        </mxCell>
        <mxCell id="wFXzx2R2zVo7K_9oRjjB-13" value="" style="endArrow=none;dashed=1;html=1;rounded=0;" edge="1" parent="WIyWlLk6GJQsqaUBKTNV-1">
          <mxGeometry width="50" height="50" relative="1" as="geometry">
            <mxPoint x="730" y="910" as="sourcePoint" />
            <mxPoint x="710" y="910" as="targetPoint" />
          </mxGeometry>
        </mxCell>
        <mxCell id="wFXzx2R2zVo7K_9oRjjB-17" value="Lambda&lt;div&gt;Result Consolidation&lt;/div&gt;&lt;div&gt;&amp;amp; Validation&lt;/div&gt;" style="ellipse;whiteSpace=wrap;html=1;" vertex="1" parent="WIyWlLk6GJQsqaUBKTNV-1">
          <mxGeometry x="275" y="1040" width="120" height="80" as="geometry" />
        </mxCell>
      </root>
    </mxGraphModel>
  </diagram>
</mxfile>
